# xmcd
#
# Track frame offsets:
#	150
#	14886
#	28215
#	40881
#	61836
#	77754
#	92927
#	107149
#	121596
#	139505
#	151525
#	166565
#
# Disc length: 2467 seconds
#
# Revision: 0
# Processed by: cddbd v1.5.2PL0 Copyright (c) Steve Scherf et al.
# Submitted via: dBpowerAMP V4.0
#
DISCID=8b09a10c
DTITLE=Steve Fisher - River
DYEAR=2007
DGENRE=country folk
TTITLE0=Riding the Reservoir
TTITLE1=River keep a rolling
TTITLE2=Lost Dog Blues
TTITLE3=The red Haired boy and the dark eyed Girl
TTITLE4=Walk on Boy
TTITLE5=Prairie Rose
TTITLE6=Streets of Calgary
TTITLE7=Florida Blues
TTITLE8=The Letter
TTITLE9=I'm all Through Throwin' good love after bad
TTITLE10=Stack O' Lee
TTITLE11=Horizontal
EXTD=
EXTT0=
EXTT1=
EXTT2=
EXTT3=
EXTT4=
EXTT5=
EXTT6=
EXTT7=
EXTT8=
EXTT9=
EXTT10=
EXTT11=
PLAYORDER=
